<svg width="1052" height="1280" xmlns="http://www.w3.org/2000/svg" version="1.0">
 <metadata>Created by potrace 1.15, written by Peter Selinger 2001-2017</metadata>

 <g>
  <title>Layer 1</title>
  <g id="svg_1" fill="#000000" transform="translate(0.000000,1280.000000) scale(0.100000,-0.100000)">
   <path id="svg_2" d="m9762,12776c-51,-13 -94,-25 -97,-27c-2,-3 0,-61 6,-129c5,-69 6,-192 3,-275c-7,-176 -25,-246 -134,-520c-99,-248 -175,-384 -257,-459c-120,-110 -121,-110 -65,-5c42,78 57,123 92,269l42,175l-6,170c-6,145 -12,188 -38,290c-31,117 -34,123 -127,257c-53,75 -99,137 -102,137c-7,1 -59,-218 -59,-247c0,-11 15,-62 34,-113l33,-94l-22,-160c-12,-88 -30,-198 -40,-244c-21,-96 -19,-99 -66,80l-33,121l-130,124c-72,68 -133,124 -137,124c-3,0 -19,-46 -36,-101l-31,-101l49,-69l49,-69l0,-103c1,-56 9,-146 19,-201l18,-98l-55,-139c-45,-115 -59,-140 -78,-145c-35,-9 -208,32 -385,91l-159,54l0,-109l0,-108l181,-61c177,-60 212,-77 347,-177c14,-10 -77,-108 -178,-195c-76,-66 -151,-142 -204,-209c-47,-58 -120,-142 -163,-187l-78,-82l-116,26l-117,26l-88,77l-89,76l4,102l3,102l-62,113c-35,61 -89,149 -120,193c-44,61 -65,104 -85,170c-25,82 -27,98 -22,204c7,134 56,379 115,578c25,83 36,132 28,132c-6,0 -63,8 -128,18l-116,19l-57,-131c-82,-189 -114,-345 -125,-615l-9,-205l35,-175c23,-118 44,-195 62,-233c16,-32 26,-58 23,-58c-3,0 -60,9 -126,19c-108,17 -140,28 -319,105c-238,102 -317,158 -514,360c-70,72 -147,148 -170,168l-44,36l73,124c39,68 116,188 171,268c92,136 102,156 148,294l50,148l-20,101c-13,65 -26,106 -36,114c-27,20 -174,94 -174,88c0,-3 -16,-80 -36,-172l-36,-167l-170,-306c-93,-168 -171,-306 -172,-307c-1,-2 -29,17 -62,41c-55,40 -111,98 -286,297l-67,76l-17,99c-10,61 -18,199 -22,358l-7,259l-98,22c-54,12 -100,19 -102,14c-3,-4 -21,-54 -41,-111l-37,-103l7,-195c6,-191 6,-194 -12,-165c-10,17 -35,85 -56,151l-39,122l-109,102c-60,56 -110,101 -112,99c-6,-9 -76,-202 -76,-212c0,-28 114,-354 154,-439c39,-82 67,-122 185,-260c110,-129 163,-181 253,-251c85,-67 179,-158 383,-376c149,-158 284,-298 302,-312c17,-13 37,-34 44,-46c7,-13 19,-23 27,-23c7,0 84,-55 170,-123c87,-68 196,-147 243,-175c85,-51 88,-54 125,-130c32,-67 39,-93 50,-197c12,-114 16,-127 79,-270c57,-128 81,-169 168,-284c91,-119 111,-140 182,-185c44,-29 95,-58 113,-65c39,-16 38,-8 8,-221c-19,-129 -39,-216 -94,-400c-61,-206 -80,-256 -157,-410c-48,-96 -95,-182 -105,-190c-10,-8 -60,-49 -111,-91l-94,-76l-330,22l-330,22l-370,-23c-203,-13 -451,-24 -550,-24c-167,0 -200,3 -454,45c-172,29 -378,55 -555,70c-175,15 -357,38 -481,60c-563,101 -1175,153 -1640,139l-230,-6l-275,-145c-247,-130 -298,-162 -495,-306c-121,-88 -286,-211 -367,-273l-148,-112l-126,-191l-127,-191l7,-83c3,-45 24,-226 46,-402c22,-176 54,-443 70,-594c16,-151 32,-276 34,-278c2,-2 52,62 112,143l108,148l9,-35c5,-19 55,-109 113,-200c108,-174 152,-273 239,-553l36,-116l-43,-97c-23,-54 -79,-162 -123,-241l-81,-143l-175,-112l-174,-113l-7,-109c-4,-61 -11,-275 -17,-476c-15,-503 -81,-1179 -152,-1553l-30,-159l15,-121c9,-67 16,-127 16,-133c0,-7 24,-40 53,-75c29,-35 90,-116 134,-181c79,-115 85,-121 197,-198l115,-79l152,0c90,0 193,6 253,16c55,9 102,17 103,18c1,1 -50,104 -115,229l-117,227l-96,64c-93,63 -96,65 -112,120c-14,52 -14,72 13,353c15,164 31,359 35,433c14,300 35,492 67,615c36,142 31,132 124,260c49,69 129,157 249,273c97,94 185,176 195,182c20,10 20,6 20,-203l0,-214l-34,-86l-34,-86l63,-165c35,-91 75,-218 90,-283c17,-73 58,-195 107,-317c51,-129 98,-270 133,-400c51,-190 91,-301 313,-881c44,-115 108,-288 142,-384c71,-202 85,-222 230,-353c99,-89 107,-94 259,-158c99,-43 189,-73 248,-85l92,-19l73,51l73,51l10,120l10,121l-140,157c-113,127 -163,175 -257,244c-163,121 -205,176 -252,336c-20,66 -84,230 -142,365c-122,281 -257,664 -314,891c-39,153 -40,161 -40,333l0,175l95,523c93,518 211,1106 223,1119c4,3 97,-54 207,-128c109,-74 204,-134 210,-134c5,0 120,-37 255,-81l245,-80l340,-19c474,-27 725,-26 1083,5c275,23 295,24 335,8c23,-9 45,-19 49,-22c14,-12 58,-330 98,-716c22,-214 61,-523 85,-686c42,-273 45,-305 37,-399c-8,-98 -7,-104 21,-173l29,-72l-7,-320c-5,-259 -14,-411 -50,-800l-43,-480l24,-220c13,-121 24,-223 24,-226c0,-4 61,-55 136,-114c135,-107 136,-107 252,-142l117,-35l149,11c82,6 151,13 153,15c3,2 11,45 19,96c13,80 13,95 1,109c-8,9 -58,66 -112,126c-53,61 -132,161 -176,223c-113,160 -109,122 -109,924l0,646l65,152c42,99 68,173 73,213l8,62l13,-80c7,-44 26,-132 41,-195c25,-100 33,-170 59,-525c16,-225 32,-520 36,-655l6,-245l36,-100c80,-228 176,-481 187,-492c34,-34 347,-141 657,-222l147,-39l76,77l76,77l-66,105c-66,103 -69,107 -152,154c-68,39 -114,78 -231,196l-146,147l-38,123c-35,115 -41,148 -69,439c-26,279 -30,357 -31,680c-4,735 91,1685 215,2176l41,162l216,274l216,275l97,199c77,160 105,229 138,349c24,83 51,167 62,188c10,21 143,169 296,330c271,286 279,297 383,463l107,169l70,225c95,305 224,746 321,1100c45,162 85,296 89,299c5,3 39,31 78,62c81,67 181,103 309,113c44,4 103,9 130,12l51,5l13,77c20,109 24,191 16,311l-7,103l-72,77c-141,149 -276,325 -276,358c0,11 10,35 23,53c19,28 36,37 114,60c79,24 110,40 215,114l123,87l87,152c78,137 92,169 138,326l52,174l-7,146l-7,146l-69,126c-53,96 -74,126 -87,123c-72,-14 -214,-36 -217,-32c-2,2 57,65 133,141c102,102 177,165 296,249l158,113l97,180c94,176 99,184 248,348c84,92 199,225 257,296l106,129l0,56l0,56l-179,0l-179,0l-38,-67c-20,-38 -60,-108 -88,-158l-51,-90l-6,80c-4,44 -10,207 -15,363l-7,282l-51,-1c-28,0 -93,-11 -144,-23z"/>
  </g>
 </g>
</svg>
