<?xml version="1.0" encoding="iso-8859-1"?>
<!-- Generator: Adobe Illustrator 19.0.0, SVG Export Plug-In . SVG Version: 6.00 Build 0)  -->
<svg version="1.1" id="Layer_1" xmlns="http://www.w3.org/2000/svg" xmlns:xlink="http://www.w3.org/1999/xlink" x="0px" y="0px"
	 viewBox="0 0 512 512" style="enable-background:new 0 0 512 512;" xml:space="preserve">
<g transform="translate(1 1)">
	<g>
		<path style="fill:#FFE100;" d="M408.6,314.733c-2.56,0-5.973,0-8.533,0C447.853,319,485.4,359.107,485.4,408.6
			s-37.547,88.747-85.333,93.867c2.56,0,5.973,0,8.533,0c52.053,0,93.867-41.813,93.867-93.867S460.653,314.733,408.6,314.733"/>
		<path style="fill:#FFE100;" d="M289.133,408.6V101.4H41.667v401.067H383C331.8,502.467,289.133,459.8,289.133,408.6"/>
	</g>
	<path style="fill:#FFFFFF;" d="M16.067,502.467h25.6V101.4h-25.6V502.467z"/>
	<path style="fill:#FFE100;" d="M357.4,502.467L357.4,502.467c-29.013,0-68.267-42.667-68.267-93.867V101.4
		c0-52.053,39.253-93.867,68.267-93.867c51.2,0,93.867,41.813,93.867,93.867v307.2C451.267,459.8,408.6,502.467,357.4,502.467"/>
	<path style="fill:#FFA800;" d="M383,7.533c-4.267,0-8.533,0-12.8,0.853c45.227,6.827,81.067,46.08,81.067,93.013v307.2
		c0,46.933-35.84,86.187-81.067,93.013c4.267,0.853,8.533,0.853,12.8,0.853c51.2,0,93.867-42.667,93.867-93.867V101.4
		C476.867,49.347,434.2,7.533,383,7.533"/>
	<path style="fill:#FECC00;" d="M459.8,408.6c0,52.053-41.813,93.867-93.867,93.867s-76.8-41.813-76.8-93.867
		s24.747-93.867,76.8-93.867S459.8,356.547,459.8,408.6"/>
	<path style="fill:#FFA800;" d="M383,314.733c-2.56,0-5.973,0-8.533,0C422.253,319,459.8,359.107,459.8,408.6
		s-37.547,88.747-85.333,93.867c2.56,0,5.973,0,8.533,0c52.053,0,93.867-41.813,93.867-93.867S435.053,314.733,383,314.733"/>
	<g>
		<path style="fill:#FFE100;" d="M408.6,7.533c-4.267,0-8.533,0-12.8,0.853c45.227,6.827,81.067,46.08,81.067,93.013v307.2
			c0,46.933-35.84,86.187-81.067,93.013c4.267,0.853,8.533,0.853,12.8,0.853c51.2,0,93.867-42.667,93.867-93.867V101.4
			C502.467,49.347,459.8,7.533,408.6,7.533"/>
		<path style="fill:#FFE100;" d="M434.2,408.6c0,28.16-23.04,51.2-51.2,51.2c-28.16,0-51.2-23.04-51.2-51.2
			c0-28.16,23.04-51.2,51.2-51.2C411.16,357.4,434.2,380.44,434.2,408.6"/>
	</g>
	<path d="M383,511c-56.32,0-102.4-46.08-102.4-102.4V101.4C280.6,45.08,326.68-1,383-1s102.4,46.08,102.4,102.4v307.2
		C485.4,464.92,439.32,511,383,511z M383,16.067c-46.933,0-85.333,38.4-85.333,85.333v307.2c0,46.933,38.4,85.333,85.333,85.333
		s85.333-38.4,85.333-85.333V101.4C468.333,54.467,429.933,16.067,383,16.067z"/>
	<path d="M383,511H7.533V92.867h290.133V408.6c0,46.933,38.4,85.333,85.333,85.333V511z M24.6,493.933h302.08
		C299.373,475.16,280.6,444.44,280.6,408.6V109.933h-256V493.933z"/>
	<path d="M383,511c-56.32,0-102.4-46.08-102.4-102.4S326.68,306.2,383,306.2s102.4,46.08,102.4,102.4S439.32,511,383,511z
		 M383,323.267c-46.933,0-85.333,38.4-85.333,85.333s38.4,85.333,85.333,85.333s85.333-38.4,85.333-85.333
		S429.933,323.267,383,323.267z"/>
	<path d="M383,468.333c-33.28,0-59.733-26.453-59.733-59.733S349.72,348.867,383,348.867s59.733,26.453,59.733,59.733
		S416.28,468.333,383,468.333z M383,365.933c-23.893,0-42.667,18.773-42.667,42.667c0,23.893,18.773,42.667,42.667,42.667
		c23.893,0,42.667-18.773,42.667-42.667C425.667,384.707,406.893,365.933,383,365.933z"/>
	
		<rect x="-0.144" y="152.605" transform="matrix(-0.8638 0.5039 -0.5039 -0.8638 302.0025 240.6284)" width="237.234" height="17.067"/>
	
		<rect x="-6.124" y="361.655" transform="matrix(-0.8596 0.5109 -0.5109 -0.8596 472.8969 610.4517)" width="317.429" height="17.066"/>
	
		<rect x="144.092" y="114.206" transform="matrix(-0.2425 0.9701 -0.9701 -0.2425 437.0251 168.7709)" width="17.066" height="281.586"/>
	
		<rect x="75.863" y="169.88" transform="matrix(-0.8541 0.5201 -0.5201 -0.8541 446.252 231.6459)" width="229.546" height="17.067"/>
	
		<rect x="150.826" y="207.835" transform="matrix(-0.8574 0.5146 -0.5146 -0.8574 530.1775 285.8472)" width="149.329" height="17.066"/>
	
		<rect x="225.059" y="246.255" transform="matrix(-0.8682 0.4961 -0.4961 -0.8682 611.436 347.2042)" width="69.116" height="17.066"/>
	<rect x="109.933" y="195.267" transform="matrix(-0.28 0.96 -0.96 -0.28 441.4933 272.7467)" width="17.067" height="213.333"/>
	
		<rect x="75.793" y="272.891" transform="matrix(-0.2983 0.9545 -0.9545 -0.2983 438.3662 366.8694)" width="17.067" height="143.364"/>
	
		<rect x="41.234" y="359.384" transform="matrix(-0.3511 0.9363 -0.9363 -0.3511 437.6999 487.9679)" width="17.066" height="72.531"/>
	
		<rect x="4.115" y="417.144" transform="matrix(-0.865 0.5018 -0.5018 -0.865 506.1517 715.1706)" width="305.498" height="17.067"/>
	
		<rect x="114.21" y="446.989" transform="matrix(-0.8654 0.5011 -0.5011 -0.8654 616.4062 745.4618)" width="187.735" height="17.067"/>
	
		<rect x="6.618" y="126.772" transform="matrix(-0.8517 0.524 -0.524 -0.8517 204.0341 212.8723)" width="130.558" height="17.066"/>
</g>
<g>
</g>
<g>
</g>
<g>
</g>
<g>
</g>
<g>
</g>
<g>
</g>
<g>
</g>
<g>
</g>
<g>
</g>
<g>
</g>
<g>
</g>
<g>
</g>
<g>
</g>
<g>
</g>
<g>
</g>
</svg>
