<svg width="512" height="512" xmlns="http://www.w3.org/2000/svg" xml:space="preserve" version="1.1">

 <g>
  <title>Layer 1</title>
  <g id="svg_1">
   <g id="svg_2">
    <path id="svg_3" fill="#FFE100" d="m409.6,315.733c-2.56,0 -5.973,0 -8.533,0c47.786,4.267 85.333,44.374 85.333,93.867s-37.547,88.747 -85.333,93.867c2.56,0 5.973,0 8.533,0c52.053,0 93.867,-41.813 93.867,-93.867s-41.814,-93.867 -93.867,-93.867"/>
    <path id="svg_4" fill="#FFE100" d="m290.133,409.6l0,-307.2l-247.466,0l0,401.067l341.333,0c-51.2,0 -93.867,-42.667 -93.867,-93.867"/>
   </g>
   <path id="svg_5" fill="#FFFFFF" d="m17.067,503.467l25.6,0l0,-401.067l-25.6,0l0,401.067z"/>
   <path id="svg_6" fill="#FFE100" d="m358.4,503.467l0,0c-29.013,0 -68.267,-42.667 -68.267,-93.867l0,-307.2c0,-52.053 39.253,-93.867 68.267,-93.867c51.2,0 93.867,41.813 93.867,93.867l0,307.2c0,51.2 -42.667,93.867 -93.867,93.867"/>
   <path id="svg_7" fill="#FFA800" d="m384,8.533c-4.267,0 -8.533,0 -12.8,0.853c45.227,6.827 81.067,46.08 81.067,93.013l0,307.2c0,46.933 -35.84,86.187 -81.067,93.013c4.267,0.853 8.533,0.853 12.8,0.853c51.2,0 93.867,-42.667 93.867,-93.867l0,-307.198c0,-52.053 -42.667,-93.867 -93.867,-93.867"/>
   <path id="svg_8" fill="#FECC00" d="m460.8,409.6c0,52.053 -41.813,93.867 -93.867,93.867s-76.8,-41.813 -76.8,-93.867s24.747,-93.867 76.8,-93.867s93.867,41.814 93.867,93.867"/>
   <path id="svg_9" fill="#FFA800" d="m384,315.733c-2.56,0 -5.973,0 -8.533,0c47.786,4.267 85.333,44.374 85.333,93.867s-37.547,88.747 -85.333,93.867c2.56,0 5.973,0 8.533,0c52.053,0 93.867,-41.813 93.867,-93.867s-41.814,-93.867 -93.867,-93.867"/>
   <g id="svg_10">
    <path id="svg_11" fill="#FFE100" d="m409.6,8.533c-4.267,0 -8.533,0 -12.8,0.853c45.227,6.827 81.067,46.08 81.067,93.013l0,307.2c0,46.933 -35.84,86.187 -81.067,93.013c4.267,0.853 8.533,0.853 12.8,0.853c51.2,0 93.867,-42.667 93.867,-93.867l0,-307.198c0,-52.053 -42.667,-93.867 -93.867,-93.867"/>
    <path id="svg_12" fill="#FFE100" d="m435.2,409.6c0,28.16 -23.04,51.2 -51.2,51.2c-28.16,0 -51.2,-23.04 -51.2,-51.2c0,-28.16 23.04,-51.2 51.2,-51.2c28.16,0 51.2,23.04 51.2,51.2"/>
   </g>
   <path id="svg_13" d="m384,512c-56.32,0 -102.4,-46.08 -102.4,-102.4l0,-307.2c0,-56.32 46.08,-102.4 102.4,-102.4s102.4,46.08 102.4,102.4l0,307.2c0,56.32 -46.08,102.4 -102.4,102.4zm0,-494.933c-46.933,0 -85.333,38.4 -85.333,85.333l0,307.2c0,46.933 38.4,85.333 85.333,85.333s85.333,-38.4 85.333,-85.333l0,-307.2c0,-46.933 -38.4,-85.333 -85.333,-85.333z"/>
   <path id="svg_14" d="m384,512l-375.467,0l0,-418.133l290.133,0l0,315.733c0,46.933 38.4,85.333 85.333,85.333l0,17.067l0.001,0zm-358.4,-17.067l302.08,0c-27.307,-18.773 -46.08,-49.493 -46.08,-85.333l0,-298.667l-256,0l0,384z"/>
   <path id="svg_15" d="m384,512c-56.32,0 -102.4,-46.08 -102.4,-102.4s46.08,-102.4 102.4,-102.4s102.4,46.08 102.4,102.4s-46.08,102.4 -102.4,102.4zm0,-187.733c-46.933,0 -85.333,38.4 -85.333,85.333s38.4,85.333 85.333,85.333s85.333,-38.4 85.333,-85.333s-38.4,-85.333 -85.333,-85.333z"/>
   <path id="svg_16" d="m384,469.333c-33.28,0 -59.733,-26.453 -59.733,-59.733s26.453,-59.733 59.733,-59.733s59.733,26.453 59.733,59.733s-26.453,59.733 -59.733,59.733zm0,-102.4c-23.893,0 -42.667,18.773 -42.667,42.667c0,23.893 18.773,42.667 42.667,42.667c23.893,0 42.667,-18.773 42.667,-42.667c0,-23.893 -18.774,-42.667 -42.667,-42.667z"/>
   <rect id="svg_17" height="17.067" width="237.234" transform="matrix(-0.8638 0.5039 -0.5039 -0.8638 302.003 240.628)" y="151.23739" x="-0.50388"/>
   <rect id="svg_18" height="17.066" width="317.429" transform="matrix(-0.8596 0.5109 -0.5109 -0.8596 472.897 610.452)" y="360.28441" x="-6.47272"/>
   <rect id="svg_19" height="281.586" width="17.066" transform="matrix(-0.2425 0.9701 -0.9701 -0.2425 437.025 168.771)" y="112.99328" x="144.81967"/>
   <rect id="svg_20" height="17.067" width="229.546" transform="matrix(-0.8541 0.5201 -0.5201 -0.8541 446.252 231.646)" y="168.50579" x="75.529"/>
   <rect id="svg_21" height="17.066" width="149.329" transform="matrix(-0.8574 0.5146 -0.5146 -0.8574 530.177 285.847)" y="206.46293" x="150.48318"/>
   <rect id="svg_22" height="17.066" width="69.116" transform="matrix(-0.8682 0.4961 -0.4961 -0.8682 611.436 347.204)" y="244.89055" x="224.68686"/>
   <rect id="svg_23" height="213.333" width="17.067" transform="matrix(-0.28 0.96 -0.96 -0.28 441.493 272.747)" y="194.027" x="110.613"/>
   <rect id="svg_24" height="143.364" width="17.067" transform="matrix(-0.2983 0.9545 -0.9545 -0.2983 438.366 366.869)" y="271.63827" x="76.44917"/>
   <rect id="svg_25" height="72.531" width="17.066" transform="matrix(-0.3511 0.9363 -0.9363 -0.3511 437.7 487.968)" y="358.09651" x="41.81924"/>
   <rect id="svg_26" height="17.067" width="305.498" transform="matrix(-0.865 0.5018 -0.5018 -0.865 506.152 715.171)" y="415.77724" x="3.75181"/>
   <rect id="svg_27" height="17.067" width="187.735" transform="matrix(-0.8654 0.5011 -0.5011 -0.8654 616.406 745.462)" y="445.62253" x="113.84571"/>
   <rect id="svg_28" height="17.066" width="130.558" transform="matrix(-0.8517 0.524 -0.524 -0.8517 204.034 212.872)" y="125.39626" x="6.29029"/>
  </g>
  <g id="svg_29"/>
  <g id="svg_30"/>
  <g id="svg_31"/>
  <g id="svg_32"/>
  <g id="svg_33"/>
  <g id="svg_34"/>
  <g id="svg_35"/>
  <g id="svg_36"/>
  <g id="svg_37"/>
  <g id="svg_38"/>
  <g id="svg_39"/>
  <g id="svg_40"/>
  <g id="svg_41"/>
  <g id="svg_42"/>
  <g id="svg_43"/>
 </g>
</svg>
