<svg id="eUC0Gd9nZ5N1"
     xmlns="http://www.w3.org/2000/svg"
     xmlns:xlink="http://www.w3.org/1999/xlink"
     viewBox="0 0 300 300">
	<ellipse rx="39.542294"
	         ry="39.542294"
	         transform="translate(150 82.995364)"
	         fill="#1661f6"
	         stroke-width="0"/>
	<g transform="translate(11 22)">
		<rect width="279.837775"
			  height="53.881808"
			  rx="0"
			  ry="0"
			  transform="translate(11.384706 226.825029)"
			  fill="#ede8d2"
			  stroke="#000"
			  stroke-width="12"/>
		<polygon points="0,-71.822604 68.307356,-22.194405 42.216268,58.105707 -42.216268,58.105707 -68.307356,-22.194405 0,-71.822604"
				 transform="translate(150 168.719322)"
				 fill="#c3fb83"
				 stroke-width="0"/>
		<line x1="-120.688399"
			  y1="19.939823"
			  x2="120.688399"
			  y2="-19.939822"
			  transform="translate(145.756229 44.697841)"
			  fill="none"
			  stroke="#3f5787"
			  stroke-width="33"
			  stroke-linecap="round"
			  stroke-linejoin="round"/>
			  <g transform="matrix(.9 0 0 0.8 7 66)">
				<line x1="-15"
					  y1="0"
					  x2="15"
					  y2="0"
					  transform="translate(510.969816 188.474454)"
					  fill="none"
					  stroke="#3f5787"
					  stroke-width="3"/>
				<path d="M64.947473,141.248558q27.286073,91.303398,20.989287-35.681789L237.059626,77.231234q73.162458,118.589469-27.286075,64.017324t-64.017324,37.780714q-111.24322,132.765164-120.688399,9.44518C15.622649,65.154467,37.661398,49.945157,64.947473,141.248558Z"
					  transform="matrix(.973829 0 0 0.489087 4.208818 74.388166)"
					  fill="none"
					  stroke="#f607ce"
					  stroke-width="11"/>
			  </g>
		<text dx="0"
			  dy="0"
			  font-size="15"
			  font-weight="400"
			  transform="matrix(1.562761-.258674 0.657816 3.97415 83.886457 280.357226)"
			  fill="#ef2121"
			  stroke-width="0">
			<tspan y="0"
				   font-weight="400"
				   stroke-width="0"><![CDATA[Sample Text]]></tspan>
		</text>
	</g>
</svg>
