<svg width="1052" height="1280" xmlns="http://www.w3.org/2000/svg" preserveAspectRatio="xMidYMid meet" version="1.0">
  
  <ellipse stroke="#000" ry="70.8342" rx="70.8342" id="svg_3" cy="52.13808" cx="491.27735" fill="#fff"/>
  <ellipse ry="80.55654" rx="80.55654" id="svg_4" cy="395.19783" cx="884.33771" stroke="#000" fill="#fff"/>
  <ellipse stroke="#000" ry="84.72326" rx="84.72326" id="svg_5" cy="318.80801" cx="671.83512" fill="#fff"/>
  <ellipse ry="34.72265" rx="34.72265" id="svg_6" cy="46.58246" cx="630.16794" stroke="#000" fill="#fff"/>
  <ellipse ry="34.72265" rx="34.72265" id="svg_7" cy="93.80526" cx="727.39135" stroke="#000" fill="#fff"/>
  <ellipse ry="22.22249" rx="22.22249" id="svg_8" cy="153.52821" cx="809.33679" stroke="#000" fill="#fff"/>
  <ellipse stroke="#000" ry="33.33374" rx="33.33374" id="svg_9" cy="72.97166" cx="859.33739" fill="#fff"/>
  <ellipse ry="66.66748" rx="66.66748" id="svg_10" cy="28.52668" cx="1003.78361" stroke="#000" fill="#fff"/>
  <ellipse ry="22.22249" rx="22.22249" id="svg_11" cy="31.30449" cx="912.11583" stroke="#000" fill="#fff"/>
  <ellipse ry="37.50046" rx="37.50046" id="svg_12" cy="207.69554" cx="944.06066" stroke="#000" fill="#fff"/>
  <ellipse ry="58.33405" rx="58.33405" id="svg_14" cy="1236.87477" cx="673.22402" stroke="#000" fill="#fff"/>
  <ellipse stroke="#000" ry="48.6117" rx="48.6117" id="svg_15" cy="1257.70834" cx="560.72265" fill="#fff"/>
  <ellipse stroke="#000" ry="59.72295" rx="59.72295" id="svg_16" cy="1196.5965" cx="266.27461" fill="#fff"/>
  <ellipse ry="47.2228" rx="47.2228" id="svg_17" cy="1136.87355" cx="70.43888" stroke="#000" fill="#fff"/>
  <ellipse stroke="#000" ry="101.39012" rx="101.39012" id="svg_18" cy="660.47885" cx="35.71623" fill="#fff"/>
  <ellipse stroke="#000" ry="47.2228" rx="47.2228" id="svg_19" cy="842.42556" cx="39.88295" fill="#fff"/>
</svg>
