<svg width="297.5" height="297.5" xmlns="http://www.w3.org/2000/svg" xml:space="preserve" version="1.1">
  
  <ellipse ry="28" rx="28" id="svg_37" cy="49.58333" cx="148.75" stroke="#000" fill="#fff"/>
  <ellipse fill="#fff" stroke="#000" cx="211.75" cy="7.58333" id="svg_38" rx="27" ry="27"/>
  <ellipse fill="#fff" stroke="#000" cx="84.75" cy="8.58333" id="svg_39" rx="24" ry="24"/>
  <ellipse fill="#fff" stroke="#000" cx="274.75" cy="81.58333" id="svg_40" rx="22" ry="22"/>
  <ellipse fill="#fff" stroke="#000" cx="275.75" cy="282.58333" id="svg_41" rx="23" ry="23"/>
  <ellipse fill="#fff" stroke="#000" cx="17.75" cy="283.58333" id="svg_42" rx="21" ry="21"/>
  <ellipse fill="#fff" stroke="#000" cx="16.75" cy="76.58333" id="svg_43" rx="21" ry="21"/>
  <ellipse fill="#fff" stroke="#000" cx="46.75" cy="124.58333" id="svg_44" rx="14" ry="14"/>
  <ellipse fill="#fff" stroke="#000" cx="46.75" cy="156.58333" id="svg_46" rx="11" ry="11"/>
  <ellipse fill="#fff" stroke="#000" cx="47.75" cy="189.58333" id="svg_47" rx="12" ry="12"/>
  <ellipse fill="#fff" stroke="#000" cx="48.75" cy="221.58333" id="svg_48" rx="13" ry="13"/>
  <ellipse fill="#fff" stroke="#000" cx="46.75" cy="253.58333" id="svg_49" rx="13" ry="13"/>
  <ellipse fill="#fff" stroke="#000" cx="85.75" cy="254.58333" id="svg_50" rx="13" ry="13"/>
  <ellipse fill="#fff" cx="85.25" cy="222.08333" id="svg_51" rx="11.5" ry="11.5" stroke="#000"/>
  <ellipse fill="#fff" stroke="#000" cx="85.75" cy="189.58333" id="svg_52" rx="12" ry="12"/>
  <ellipse fill="#fff" stroke="#000" cx="83.75" cy="156.58333" id="svg_53" rx="13" ry="13"/>
  <ellipse fill="#fff" stroke="#000" cx="83.75" cy="124.58333" id="svg_54" rx="13" ry="13"/>
  <ellipse fill="#fff" stroke="#000" cx="83.75" cy="88.58333" id="svg_55" rx="17" ry="17"/>
  <ellipse fill="#fff" stroke="#000" cx="209.75" cy="87.58333" id="svg_56" rx="20" ry="20"/>
  <ellipse fill="#fff" stroke="#000" cx="131.75" cy="124.58333" id="svg_57" rx="13" ry="13"/>
  <ellipse fill="#fff" cx="166.75" cy="123.58333" id="svg_58" rx="12" ry="12" stroke="#000"/>
  <ellipse fill="#fff" stroke="#000" cx="130.75" cy="156.58333" id="svg_59" rx="12" ry="12"/>
  <ellipse fill="#fff" stroke="#000" cx="165.75" cy="155.58333" id="svg_60" rx="14" ry="14"/>
  <ellipse fill="#fff" stroke="#000" cx="114.75" cy="203.58333" id="svg_61" rx="12" ry="12"/>
  <ellipse fill="#fff" stroke="#000" cx="182.75" cy="203.58333" id="svg_62" rx="12" ry="12"/>
  <ellipse fill="#fff" stroke="#000" cx="211.75" cy="124.58333" id="svg_63" rx="14" ry="14"/>
  <ellipse fill="#fff" stroke="#000" cx="249.75" cy="124.58333" id="svg_64" rx="12" ry="12"/>
  <ellipse fill="#fff" stroke="#000" cx="211.75" cy="156.58333" id="svg_65" rx="13" ry="13"/>
  <ellipse fill="#fff" stroke="#000" cx="246.75" cy="156.58333" id="svg_66" rx="12" ry="12"/>
  <ellipse fill="#fff" stroke="#000" cx="210.75" cy="189.58333" id="svg_67" rx="14" ry="14"/>
  <ellipse fill="#fff" stroke="#000" cx="248.75" cy="188.58333" id="svg_68" rx="14" ry="14"/>
  <ellipse fill="#fff" stroke="#000" cx="212.75" cy="221.58333" id="svg_69" rx="16" ry="16"/>
  <ellipse fill="#fff" stroke="#000" cx="247.75" cy="221.58333" id="svg_70" rx="13" ry="13"/>
  <ellipse fill="#fff" stroke="#000" cx="210.75" cy="254.58333" id="svg_71" rx="14" ry="14"/>
  <ellipse fill="#fff" stroke="#000" cx="246.75" cy="254.58333" id="svg_72" rx="12" ry="12"/>
  <ellipse ry="20" rx="20" id="svg_74" cy="283.58333" cx="116.75" stroke="#000" fill="#fff"/>
  <ellipse ry="17" rx="17" id="svg_75" cy="284.58333" cx="181.75" stroke="#000" fill="#fff"/>
  <ellipse ry="10" rx="10" id="svg_76" cy="277.58333" cx="149.75" stroke="#000" fill="#fff"/>
  <ellipse ry="11" rx="11" id="svg_77" cy="215.58333" cx="148.75" stroke="#000" fill="#fff"/>
  <ellipse ry="15" rx="15" id="svg_78" cy="61.58333" cx="83.75" stroke="#000" fill="#fff"/>
  <ellipse ry="17" rx="17" id="svg_79" cy="61.58333" cx="212.75" stroke="#000" fill="#fff"/>
</svg>
