<svg width="533.723" height="1252.795" xmlns="http://www.w3.org/2000/svg" xml:space="preserve" enable-background="new 0 0 533.723 1252.795" version="1.1">
  <ellipse ry="97.3692" rx="97.3692" id="svg_413" cy="76.23965" cx="261.59829" stroke="#000" fill="#fff"/>
  <ellipse ry="34.2108" rx="34.2108" id="svg_414" cy="652.56005" cx="56.33349" stroke="#000" fill="#fff"/>
  <ellipse ry="33.333" rx="33.333" id="svg_415" cy="640.63957" cx="470.30775" stroke="#000" fill="#fff"/>
  <ellipse ry="56.54473" rx="56.54473" id="svg_417" cy="905.17415" cx="212.14081" stroke="#000" fill="#fff"/>
  <ellipse ry="59.28076" rx="59.28076" id="svg_418" cy="898.79008" cx="329.79033" stroke="#000" fill="#fff"/>
  <ellipse ry="118.56152" rx="118.56152" id="svg_419" cy="576.84993" cx="266.86151" stroke="#000" fill="#fff"/>
  <ellipse ry="40.12852" rx="40.12852" id="svg_420" cy="252.17376" cx="144.65194" stroke="#000" fill="#fff"/>
  <ellipse ry="36.48047" rx="36.48047" id="svg_421" cy="244.87766" cx="387.24706" stroke="#000" fill="#fff"/>
  <ellipse ry="32.83242" rx="32.83242" id="svg_422" cy="463.76048" cx="420.07948" stroke="#000" fill="#fff"/>
  <ellipse ry="36.48047" rx="36.48047" id="svg_423" cy="458.28841" cx="113.64354" stroke="#000" fill="#fff"/>
  <ellipse ry="29.18438" rx="29.18438" id="svg_424" cy="261.29387" cx="265.03749" stroke="#000" fill="#fff"/>
  <ellipse ry="34.65645" rx="34.65645" id="svg_425" cy="1226.20228" cx="215.78885" stroke="#000" fill="#fff"/>
  <ellipse ry="40.12852" rx="40.12852" id="svg_426" cy="1226.20228" cx="306.99003" stroke="#000" fill="#fff"/>
  <ellipse ry="22.80029" rx="22.80029" id="svg_427" cy="453.72835" cx="187.51649" stroke="#000" fill="#fff"/>
  <ellipse stroke="#000" ry="21.88828" rx="21.88828" id="svg_428" cy="454.64036" cx="347.11855" fill="#fff"/>
</svg>
